<svg width="1440" height="954" viewBox="0 0 1440 954" fill="none" xmlns="http://www.w3.org/2000/svg">
<rect x="476" y="675" width="265" height="84" rx="8" fill="#9F7FDB"/>
<path d="M515.28 717.352C515.104 717.496 514.872 717.616 514.584 717.712C514.296 717.808 513.968 717.856 513.6 717.856C513.104 717.856 512.696 717.8 512.376 717.688C512.056 717.56 511.84 717.344 511.728 717.04C511.168 715.504 510.696 714.216 510.312 713.176C509.928 712.12 509.624 711.224 509.4 710.488L509.28 710.488C509.232 711.496 509.192 712.432 509.16 713.296C509.128 714.144 509.096 714.968 509.064 715.768C509.048 716.568 509.016 717.384 508.968 718.216C508.936 719.048 508.896 719.952 508.848 720.928C508.672 720.992 508.44 721.048 508.152 721.096C507.88 721.144 507.592 721.168 507.288 721.168C506.712 721.168 506.256 721.072 505.92 720.88C505.6 720.672 505.44 720.32 505.44 719.824C505.44 719.488 505.456 718.976 505.488 718.288C505.52 717.584 505.56 716.776 505.608 715.864C505.672 714.952 505.736 713.992 505.8 712.984C505.864 711.96 505.928 710.952 505.992 709.96C506.072 708.968 506.136 708.056 506.184 707.224C506.312 707.032 506.56 706.84 506.928 706.648C507.312 706.456 507.832 706.36 508.488 706.36C509.192 706.36 509.752 706.472 510.168 706.696C510.6 706.92 510.912 707.288 511.104 707.8C511.36 708.408 511.624 709.096 511.896 709.864C512.184 710.632 512.464 711.408 512.736 712.192C513.008 712.976 513.256 713.688 513.48 714.328L513.6 714.328C514.08 712.904 514.56 711.512 515.04 710.152C515.52 708.792 515.936 707.656 516.288 706.744C516.496 706.632 516.768 706.544 517.104 706.48C517.456 706.4 517.816 706.36 518.184 706.36C518.84 706.36 519.376 706.464 519.792 706.672C520.208 706.864 520.456 707.152 520.536 707.536C520.6 707.84 520.664 708.32 520.728 708.976C520.808 709.632 520.888 710.392 520.968 711.256C521.048 712.104 521.128 713 521.208 713.944C521.288 714.872 521.36 715.784 521.424 716.68C521.504 717.56 521.568 718.36 521.616 719.08C521.664 719.8 521.696 720.36 521.712 720.76C521.472 720.904 521.224 721.008 520.968 721.072C520.712 721.136 520.392 721.168 520.008 721.168C519.512 721.168 519.088 721.08 518.736 720.904C518.384 720.728 518.192 720.376 518.16 719.848C518.08 718.568 518.016 717.352 517.968 716.2C517.92 715.048 517.88 713.992 517.848 713.032C517.832 712.072 517.8 711.256 517.752 710.584L517.656 710.584C517.432 711.272 517.12 712.152 516.72 713.224C516.336 714.296 515.856 715.672 515.28 717.352ZM530.304 718.792C530.688 718.792 531.064 718.752 531.432 718.672C531.8 718.592 532.064 718.504 532.224 718.408L532.224 716.032L530.136 716.224C529.576 716.272 529.136 716.4 528.816 716.608C528.496 716.8 528.336 717.088 528.336 717.472C528.336 717.872 528.488 718.192 528.792 718.432C529.112 718.672 529.616 718.792 530.304 718.792ZM530.16 709.168C531.808 709.168 533.12 709.512 534.096 710.2C535.072 710.872 535.56 711.936 535.56 713.392L535.56 718.864C535.56 719.264 535.456 719.584 535.248 719.824C535.056 720.064 534.808 720.28 534.504 720.472C534.024 720.744 533.432 720.96 532.728 721.12C532.024 721.28 531.216 721.36 530.304 721.36C528.672 721.36 527.376 721.048 526.416 720.424C525.456 719.784 524.976 718.84 524.976 717.592C524.976 716.504 525.312 715.672 525.984 715.096C526.672 714.52 527.672 714.16 528.984 714.016L532.2 713.68L532.2 713.368C532.2 712.808 531.984 712.408 531.552 712.168C531.136 711.912 530.536 711.784 529.752 711.784C529.144 711.784 528.544 711.856 527.952 712C527.36 712.144 526.832 712.32 526.368 712.528C526.192 712.4 526.032 712.208 525.888 711.952C525.76 711.696 525.696 711.432 525.696 711.16C525.696 710.488 526.056 710.008 526.776 709.72C527.224 709.528 527.752 709.392 528.36 709.312C528.984 709.216 529.584 709.168 530.16 709.168ZM539.454 706.192C539.454 705.664 539.63 705.216 539.982 704.848C540.35 704.48 540.822 704.296 541.398 704.296C541.974 704.296 542.438 704.48 542.79 704.848C543.158 705.216 543.342 705.664 543.342 706.192C543.342 706.704 543.158 707.144 542.79 707.512C542.438 707.88 541.974 708.064 541.398 708.064C540.822 708.064 540.35 707.88 539.982 707.512C539.63 707.144 539.454 706.704 539.454 706.192ZM539.67 714.664L543.126 714.664L543.126 720.976C542.982 721.008 542.766 721.048 542.478 721.096C542.206 721.144 541.902 721.168 541.566 721.168C540.91 721.168 540.43 721.056 540.126 720.832C539.822 720.592 539.67 720.168 539.67 719.56L539.67 714.664ZM543.126 716.464L539.67 716.464L539.67 709.648C539.814 709.6 540.022 709.552 540.294 709.504C540.582 709.456 540.894 709.432 541.23 709.432C541.902 709.432 542.382 709.544 542.67 709.768C542.974 709.992 543.126 710.424 543.126 711.064L543.126 716.464ZM556.483 717.664C556.483 718.832 556.043 719.744 555.163 720.4C554.299 721.056 553.035 721.384 551.371 721.384C550.059 721.384 548.979 721.192 548.131 720.808C547.299 720.408 546.883 719.848 546.883 719.128C546.883 718.808 546.955 718.528 547.099 718.288C547.243 718.032 547.427 717.832 547.651 717.688C548.099 717.96 548.619 718.208 549.211 718.432C549.803 718.64 550.483 718.744 551.251 718.744C552.467 718.744 553.075 718.392 553.075 717.688C553.075 717.4 552.963 717.168 552.739 716.992C552.531 716.816 552.187 716.68 551.707 716.584L550.627 716.32C549.363 716.064 548.419 715.656 547.795 715.096C547.171 714.52 546.859 713.744 546.859 712.768C546.859 711.664 547.307 710.784 548.203 710.128C549.099 709.472 550.307 709.144 551.827 709.144C552.611 709.144 553.307 709.224 553.915 709.384C554.539 709.528 555.035 709.752 555.403 710.056C555.771 710.36 555.955 710.736 555.955 711.184C555.955 711.488 555.891 711.76 555.763 712C555.635 712.24 555.475 712.432 555.283 712.576C555.091 712.464 554.819 712.352 554.467 712.24C554.115 712.112 553.723 712.008 553.291 711.928C552.875 711.832 552.483 711.784 552.115 711.784C551.523 711.784 551.059 711.864 550.723 712.024C550.403 712.184 550.243 712.432 550.243 712.768C550.243 712.992 550.331 713.184 550.507 713.344C550.699 713.488 551.035 713.616 551.515 713.728L552.523 713.968C553.931 714.288 554.939 714.752 555.547 715.36C556.171 715.952 556.483 716.72 556.483 717.664ZM565.812 706.192C565.812 705.664 565.988 705.216 566.34 704.848C566.708 704.48 567.18 704.296 567.756 704.296C568.332 704.296 568.796 704.48 569.148 704.848C569.516 705.216 569.7 705.664 569.7 706.192C569.7 706.704 569.516 707.144 569.148 707.512C568.796 707.88 568.332 708.064 567.756 708.064C567.18 708.064 566.708 707.88 566.34 707.512C565.988 707.144 565.812 706.704 565.812 706.192ZM566.028 714.664L569.484 714.664L569.484 720.976C569.34 721.008 569.124 721.048 568.836 721.096C568.564 721.144 568.26 721.168 567.924 721.168C567.268 721.168 566.788 721.056 566.484 720.832C566.18 720.592 566.028 720.168 566.028 719.56L566.028 714.664ZM569.484 716.464L566.028 716.464L566.028 709.648C566.172 709.6 566.38 709.552 566.652 709.504C566.94 709.456 567.252 709.432 567.588 709.432C568.26 709.432 568.74 709.544 569.028 709.768C569.332 709.992 569.484 710.424 569.484 711.064L569.484 716.464ZM584.52 713.536L584.52 715.816L581.064 715.816L581.064 713.656C581.064 713.048 580.888 712.6 580.536 712.312C580.184 712.024 579.712 711.88 579.12 711.88C578.704 711.88 578.32 711.936 577.968 712.048C577.632 712.144 577.328 712.264 577.056 712.408L577.056 715.816L573.6 715.816L573.6 712.048C573.6 711.648 573.68 711.32 573.84 711.064C574.016 710.808 574.264 710.568 574.584 710.344C575.096 710.008 575.744 709.728 576.528 709.504C577.328 709.28 578.2 709.168 579.144 709.168C580.856 709.168 582.176 709.544 583.104 710.296C584.048 711.048 584.52 712.128 584.52 713.536ZM573.6 714.712L577.056 714.712L577.056 720.976C576.896 721.008 576.672 721.048 576.384 721.096C576.112 721.144 575.816 721.168 575.496 721.168C574.84 721.168 574.36 721.056 574.056 720.832C573.752 720.592 573.6 720.168 573.6 719.56L573.6 714.712ZM581.064 714.712L584.52 714.712L584.52 720.976C584.376 721.008 584.16 721.048 583.872 721.096C583.6 721.144 583.296 721.168 582.96 721.168C582.304 721.168 581.824 721.056 581.52 720.832C581.216 720.592 581.064 720.168 581.064 719.56L581.064 714.712ZM591.366 713.008L591.366 710.32L596.07 710.32C596.15 710.464 596.222 710.656 596.286 710.896C596.366 711.12 596.406 711.368 596.406 711.64C596.406 712.12 596.302 712.472 596.094 712.696C595.886 712.904 595.598 713.008 595.23 713.008L591.366 713.008ZM591.894 709.336L591.894 712.576L588.606 712.576L588.606 709.216C588.606 708.176 588.822 707.328 589.254 706.672C589.702 706.016 590.302 705.536 591.054 705.232C591.822 704.928 592.678 704.776 593.622 704.776C594.742 704.776 595.574 704.92 596.118 705.208C596.662 705.496 596.934 705.96 596.934 706.6C596.934 706.872 596.87 707.12 596.742 707.344C596.63 707.568 596.502 707.744 596.358 707.872C596.054 707.776 595.726 707.696 595.374 707.632C595.022 707.552 594.63 707.512 594.198 707.512C593.43 707.512 592.854 707.656 592.47 707.944C592.086 708.216 591.894 708.68 591.894 709.336ZM588.606 711.856L592.062 711.856L592.062 720.976C591.902 721.008 591.678 721.048 591.39 721.096C591.118 721.144 590.822 721.168 590.502 721.168C589.846 721.168 589.366 721.056 589.062 720.832C588.758 720.592 588.606 720.168 588.606 719.56L588.606 711.856ZM610.818 715.24C610.818 716.504 610.57 717.592 610.074 718.504C609.578 719.416 608.874 720.12 607.962 720.616C607.066 721.112 606.002 721.36 604.77 721.36C603.554 721.36 602.49 721.12 601.578 720.64C600.682 720.144 599.978 719.44 599.466 718.528C598.97 717.6 598.722 716.504 598.722 715.24C598.722 713.992 598.978 712.92 599.49 712.024C600.002 711.112 600.706 710.408 601.602 709.912C602.514 709.416 603.578 709.168 604.794 709.168C605.994 709.168 607.042 709.416 607.938 709.912C608.85 710.408 609.554 711.112 610.05 712.024C610.562 712.936 610.818 714.008 610.818 715.24ZM604.77 711.88C604.002 711.88 603.394 712.176 602.946 712.768C602.498 713.36 602.274 714.184 602.274 715.24C602.274 716.344 602.49 717.192 602.922 717.784C603.37 718.36 603.986 718.648 604.77 718.648C605.57 718.648 606.186 718.352 606.618 717.76C607.066 717.168 607.29 716.328 607.29 715.24C607.29 714.2 607.066 713.384 606.618 712.792C606.17 712.184 605.554 711.88 604.77 711.88ZM617.758 712.528L617.758 715.576L614.302 715.576L614.302 712.144C614.302 711.696 614.406 711.32 614.614 711.016C614.838 710.712 615.134 710.44 615.502 710.2C616.03 709.88 616.662 709.632 617.398 709.456C618.134 709.264 618.918 709.168 619.75 709.168C621.35 709.168 622.15 709.704 622.15 710.776C622.15 711.016 622.118 711.248 622.054 711.472C621.99 711.68 621.902 711.864 621.79 712.024C621.63 711.992 621.43 711.968 621.19 711.952C620.966 711.92 620.718 711.904 620.446 711.904C619.95 711.904 619.462 711.96 618.982 712.072C618.502 712.184 618.094 712.336 617.758 712.528ZM614.302 714.664L617.758 714.736L617.758 720.976C617.598 721.008 617.374 721.048 617.086 721.096C616.814 721.144 616.518 721.168 616.198 721.168C615.542 721.168 615.062 721.056 614.758 720.832C614.454 720.592 614.302 720.168 614.302 719.56L614.302 714.664ZM635.339 713.08L635.339 715.816L631.883 715.816L631.883 713.512C631.883 712.952 631.715 712.544 631.379 712.288C631.043 712.016 630.627 711.88 630.131 711.88C629.763 711.88 629.435 711.936 629.147 712.048C628.859 712.16 628.619 712.272 628.427 712.384L628.427 715.816L624.971 715.816L624.971 712.048C624.971 711.648 625.051 711.32 625.211 711.064C625.387 710.808 625.635 710.568 625.955 710.344C626.467 709.992 627.107 709.712 627.875 709.504C628.643 709.28 629.435 709.168 630.251 709.168C631.019 709.168 631.739 709.288 632.411 709.528C633.083 709.752 633.659 710.112 634.139 710.608C634.267 710.704 634.387 710.808 634.499 710.92C634.611 711.016 634.699 711.128 634.763 711.256C634.923 711.512 635.059 711.8 635.171 712.12C635.283 712.424 635.339 712.744 635.339 713.08ZM642.251 713.392L642.251 715.816L638.795 715.816L638.795 713.512C638.795 712.952 638.635 712.544 638.315 712.288C638.011 712.016 637.603 711.88 637.091 711.88C636.707 711.88 636.339 711.96 635.987 712.12C635.651 712.264 635.363 712.448 635.123 712.672L633.299 710.656C633.827 710.256 634.427 709.912 635.099 709.624C635.771 709.32 636.595 709.168 637.571 709.168C638.403 709.168 639.171 709.312 639.875 709.6C640.595 709.872 641.171 710.32 641.603 710.944C642.035 711.568 642.251 712.384 642.251 713.392ZM624.971 714.712L628.427 714.712L628.427 720.976C628.267 721.008 628.043 721.048 627.755 721.096C627.483 721.144 627.187 721.168 626.867 721.168C626.211 721.168 625.731 721.056 625.427 720.832C625.123 720.592 624.971 720.168 624.971 719.56L624.971 714.712ZM631.883 714.712L635.339 714.712L635.339 720.976C635.179 721.008 634.955 721.048 634.667 721.096C634.395 721.144 634.099 721.168 633.779 721.168C633.123 721.168 632.643 721.056 632.339 720.832C632.035 720.592 631.883 720.168 631.883 719.56L631.883 714.712ZM638.795 714.712L642.251 714.712L642.251 720.976C642.091 721.008 641.867 721.048 641.579 721.096C641.307 721.144 641.011 721.168 640.691 721.168C640.035 721.168 639.555 721.056 639.251 720.832C638.947 720.592 638.795 720.168 638.795 719.56L638.795 714.712ZM650.96 718.792C651.344 718.792 651.72 718.752 652.088 718.672C652.456 718.592 652.72 718.504 652.88 718.408L652.88 716.032L650.792 716.224C650.232 716.272 649.792 716.4 649.472 716.608C649.152 716.8 648.992 717.088 648.992 717.472C648.992 717.872 649.144 718.192 649.448 718.432C649.768 718.672 650.272 718.792 650.96 718.792ZM650.816 709.168C652.464 709.168 653.776 709.512 654.752 710.2C655.728 710.872 656.216 711.936 656.216 713.392L656.216 718.864C656.216 719.264 656.112 719.584 655.904 719.824C655.712 720.064 655.464 720.28 655.16 720.472C654.68 720.744 654.088 720.96 653.384 721.12C652.68 721.28 651.872 721.36 650.96 721.36C649.328 721.36 648.032 721.048 647.072 720.424C646.112 719.784 645.632 718.84 645.632 717.592C645.632 716.504 645.968 715.672 646.64 715.096C647.328 714.52 648.328 714.16 649.64 714.016L652.856 713.68L652.856 713.368C652.856 712.808 652.64 712.408 652.208 712.168C651.792 711.912 651.192 711.784 650.408 711.784C649.8 711.784 649.2 711.856 648.608 712C648.016 712.144 647.488 712.32 647.024 712.528C646.848 712.4 646.688 712.208 646.544 711.952C646.416 711.696 646.352 711.432 646.352 711.16C646.352 710.488 646.712 710.008 647.432 709.72C647.88 709.528 648.408 709.392 649.016 709.312C649.64 709.216 650.24 709.168 650.816 709.168ZM666.374 711.904C665.494 711.904 664.742 712.192 664.118 712.768C663.494 713.344 663.182 714.184 663.182 715.288C663.182 716.392 663.478 717.224 664.07 717.784C664.678 718.328 665.446 718.6 666.374 718.6C666.902 718.6 667.366 718.536 667.766 718.408C668.166 718.264 668.502 718.112 668.774 717.952C669.046 718.128 669.254 718.328 669.398 718.552C669.542 718.776 669.614 719.056 669.614 719.392C669.614 719.968 669.286 720.44 668.63 720.808C667.99 721.16 667.118 721.336 666.014 721.336C664.75 721.336 663.638 721.112 662.678 720.664C661.734 720.216 660.998 719.544 660.47 718.648C659.942 717.736 659.678 716.616 659.678 715.288C659.678 713.912 659.958 712.776 660.518 711.88C661.094 710.968 661.854 710.288 662.798 709.84C663.758 709.392 664.798 709.168 665.918 709.168C667.006 709.168 667.862 709.368 668.486 709.768C669.126 710.152 669.446 710.64 669.446 711.232C669.446 711.504 669.382 711.752 669.254 711.976C669.126 712.2 668.966 712.392 668.774 712.552C668.47 712.392 668.118 712.248 667.718 712.12C667.334 711.976 666.886 711.904 666.374 711.904ZM664.358 720.904L666.254 720.232C666.814 720.568 667.206 720.976 667.43 721.456C667.654 721.936 667.766 722.456 667.766 723.016C667.766 723.816 667.51 724.472 666.998 724.984C666.502 725.496 665.822 725.752 664.958 725.752C664.366 725.752 663.894 725.616 663.542 725.344C663.19 725.072 663.014 724.68 663.014 724.168C663.014 723.912 663.046 723.68 663.11 723.472L663.398 723.472C663.91 723.472 664.278 723.352 664.502 723.112C664.742 722.872 664.862 722.568 664.862 722.2C664.862 722.008 664.822 721.792 664.742 721.552C664.662 721.312 664.534 721.096 664.358 720.904ZM684.318 715.24C684.318 716.504 684.07 717.592 683.574 718.504C683.078 719.416 682.374 720.12 681.462 720.616C680.566 721.112 679.502 721.36 678.27 721.36C677.054 721.36 675.99 721.12 675.078 720.64C674.182 720.144 673.478 719.44 672.966 718.528C672.47 717.6 672.222 716.504 672.222 715.24C672.222 713.992 672.478 712.92 672.99 712.024C673.502 711.112 674.206 710.408 675.102 709.912C676.014 709.416 677.078 709.168 678.294 709.168C679.494 709.168 680.542 709.416 681.438 709.912C682.35 710.408 683.054 711.112 683.55 712.024C684.062 712.936 684.318 714.008 684.318 715.24ZM678.27 711.88C677.502 711.88 676.894 712.176 676.446 712.768C675.998 713.36 675.774 714.184 675.774 715.24C675.774 716.344 675.99 717.192 676.422 717.784C676.87 718.36 677.486 718.648 678.27 718.648C679.07 718.648 679.686 718.352 680.118 717.76C680.566 717.168 680.79 716.328 680.79 715.24C680.79 714.2 680.566 713.384 680.118 712.792C679.67 712.184 679.054 711.88 678.27 711.88ZM676.326 704.296C676.774 704.296 677.198 704.352 677.598 704.464C677.998 704.576 678.374 704.696 678.726 704.824C679.078 704.952 679.374 705.016 679.614 705.016C679.95 705.016 680.206 704.92 680.382 704.728C680.558 704.52 680.686 704.328 680.766 704.152L680.862 704.152C681.31 704.152 681.694 704.304 682.014 704.608C682.35 704.896 682.518 705.288 682.518 705.784C682.518 706.408 682.31 706.888 681.894 707.224C681.494 707.544 680.974 707.704 680.334 707.704C679.838 707.704 679.39 707.64 678.99 707.512C678.59 707.384 678.23 707.264 677.91 707.152C677.59 707.024 677.294 706.96 677.022 706.96C676.686 706.96 676.43 707.056 676.254 707.248C676.094 707.44 675.974 707.632 675.894 707.824L675.798 707.824C675.35 707.824 674.958 707.68 674.622 707.392C674.286 707.104 674.118 706.704 674.118 706.192C674.118 705.76 674.222 705.408 674.43 705.136C674.654 704.848 674.934 704.64 675.27 704.512C675.622 704.368 675.974 704.296 676.326 704.296ZM689.386 716.896L689.266 714.544L695.29 713.632C695.258 713.136 695.058 712.696 694.69 712.312C694.338 711.912 693.802 711.712 693.082 711.712C692.346 711.712 691.73 711.968 691.234 712.48C690.754 712.976 690.498 713.688 690.466 714.616L690.586 716.2C690.73 717.096 691.106 717.744 691.714 718.144C692.338 718.544 693.082 718.744 693.946 718.744C694.618 718.744 695.242 718.648 695.818 718.456C696.41 718.264 696.882 718.056 697.234 717.832C697.474 717.976 697.666 718.176 697.81 718.432C697.97 718.672 698.05 718.936 698.05 719.224C698.05 719.688 697.858 720.08 697.474 720.4C697.106 720.72 696.594 720.96 695.938 721.12C695.282 721.28 694.538 721.36 693.706 721.36C692.458 721.36 691.346 721.128 690.37 720.664C689.41 720.2 688.65 719.504 688.09 718.576C687.53 717.648 687.25 716.496 687.25 715.12C687.25 714.096 687.41 713.208 687.73 712.456C688.05 711.704 688.482 711.088 689.026 710.608C689.586 710.128 690.21 709.768 690.898 709.528C691.602 709.288 692.33 709.168 693.082 709.168C694.17 709.168 695.122 709.384 695.938 709.816C696.754 710.248 697.394 710.84 697.858 711.592C698.322 712.344 698.554 713.216 698.554 714.208C698.554 714.688 698.418 715.056 698.146 715.312C697.89 715.552 697.53 715.704 697.066 715.768L689.386 716.896ZM711.25 717.664C711.25 718.832 710.81 719.744 709.93 720.4C709.066 721.056 707.802 721.384 706.138 721.384C704.826 721.384 703.746 721.192 702.898 720.808C702.066 720.408 701.65 719.848 701.65 719.128C701.65 718.808 701.722 718.528 701.866 718.288C702.01 718.032 702.194 717.832 702.418 717.688C702.866 717.96 703.386 718.208 703.978 718.432C704.57 718.64 705.25 718.744 706.018 718.744C707.234 718.744 707.842 718.392 707.842 717.688C707.842 717.4 707.73 717.168 707.506 716.992C707.298 716.816 706.954 716.68 706.474 716.584L705.394 716.32C704.13 716.064 703.186 715.656 702.562 715.096C701.938 714.52 701.626 713.744 701.626 712.768C701.626 711.664 702.074 710.784 702.97 710.128C703.866 709.472 705.074 709.144 706.594 709.144C707.378 709.144 708.074 709.224 708.682 709.384C709.306 709.528 709.802 709.752 710.17 710.056C710.538 710.36 710.722 710.736 710.722 711.184C710.722 711.488 710.658 711.76 710.53 712C710.402 712.24 710.242 712.432 710.05 712.576C709.858 712.464 709.586 712.352 709.234 712.24C708.882 712.112 708.49 712.008 708.058 711.928C707.642 711.832 707.25 711.784 706.882 711.784C706.29 711.784 705.826 711.864 705.49 712.024C705.17 712.184 705.01 712.432 705.01 712.768C705.01 712.992 705.098 713.184 705.274 713.344C705.466 713.488 705.802 713.616 706.282 713.728L707.29 713.968C708.698 714.288 709.706 714.752 710.314 715.36C710.938 715.952 711.25 716.72 711.25 717.664Z" fill="white"/>
<rect x="143" y="675" width="249" height="84" rx="8" fill="#7834F3"/>
<path d="M178.992 720.904L182.616 720.184C183.24 720.504 183.832 720.784 184.392 721.024C184.968 721.264 185.52 721.472 186.048 721.648C186.576 721.84 187.088 722.016 187.584 722.176C187.6 722.272 187.608 722.352 187.608 722.416C187.608 722.496 187.608 722.568 187.608 722.632C187.608 723.368 187.408 723.912 187.008 724.264C186.624 724.616 186.112 724.792 185.472 724.792C184.8 724.792 184.064 724.584 183.264 724.168C182.48 723.752 181.64 723.168 180.744 722.416L178.992 720.904ZM186.792 713.68C186.792 715.344 186.464 716.752 185.808 717.904C185.168 719.04 184.288 719.904 183.168 720.496C182.064 721.072 180.8 721.36 179.376 721.36C177.968 721.36 176.704 721.072 175.584 720.496C174.464 719.904 173.584 719.04 172.944 717.904C172.304 716.752 171.984 715.344 171.984 713.68C171.984 712.016 172.312 710.616 172.968 709.48C173.624 708.344 174.504 707.488 175.608 706.912C176.728 706.32 177.984 706.024 179.376 706.024C180.768 706.024 182.024 706.32 183.144 706.912C184.264 707.488 185.152 708.344 185.808 709.48C186.464 710.616 186.792 712.016 186.792 713.68ZM183.144 713.68C183.144 712.128 182.8 710.944 182.112 710.128C181.44 709.312 180.528 708.904 179.376 708.904C178.256 708.904 177.352 709.312 176.664 710.128C175.976 710.928 175.632 712.112 175.632 713.68C175.632 715.264 175.968 716.464 176.64 717.28C177.328 718.08 178.248 718.48 179.4 718.48C180.536 718.48 181.44 718.08 182.112 717.28C182.8 716.464 183.144 715.264 183.144 713.68ZM190.444 716.536L190.444 714.784L193.9 714.784L193.9 716.512C193.9 717.264 194.092 717.808 194.476 718.144C194.86 718.48 195.404 718.648 196.108 718.648C196.556 718.648 196.932 718.608 197.236 718.528C197.54 718.432 197.764 718.336 197.908 718.24L197.908 714.784L201.364 714.784L201.364 718.648C201.364 719.032 201.292 719.36 201.148 719.632C201.004 719.904 200.764 720.136 200.428 720.328C199.932 720.648 199.308 720.896 198.556 721.072C197.82 721.264 196.996 721.36 196.084 721.36C194.964 721.36 193.972 721.192 193.108 720.856C192.26 720.52 191.604 720 191.14 719.296C190.676 718.576 190.444 717.656 190.444 716.536ZM201.364 715.864L197.908 715.864L197.908 709.552C198.052 709.504 198.268 709.464 198.556 709.432C198.844 709.384 199.148 709.36 199.468 709.36C200.14 709.36 200.62 709.472 200.908 709.696C201.212 709.92 201.364 710.344 201.364 710.968L201.364 715.864ZM193.9 715.864L190.444 715.864L190.444 709.552C190.588 709.504 190.796 709.464 191.068 709.432C191.356 709.384 191.668 709.36 192.004 709.36C192.66 709.36 193.14 709.472 193.444 709.696C193.748 709.92 193.9 710.344 193.9 710.968L193.9 715.864ZM206.986 716.896L206.866 714.544L212.89 713.632C212.858 713.136 212.658 712.696 212.29 712.312C211.938 711.912 211.402 711.712 210.682 711.712C209.946 711.712 209.33 711.968 208.834 712.48C208.354 712.976 208.098 713.688 208.066 714.616L208.186 716.2C208.33 717.096 208.706 717.744 209.314 718.144C209.938 718.544 210.682 718.744 211.546 718.744C212.218 718.744 212.842 718.648 213.418 718.456C214.01 718.264 214.482 718.056 214.834 717.832C215.074 717.976 215.266 718.176 215.41 718.432C215.57 718.672 215.65 718.936 215.65 719.224C215.65 719.688 215.458 720.08 215.074 720.4C214.706 720.72 214.194 720.96 213.538 721.12C212.882 721.28 212.138 721.36 211.306 721.36C210.058 721.36 208.946 721.128 207.97 720.664C207.01 720.2 206.25 719.504 205.69 718.576C205.13 717.648 204.85 716.496 204.85 715.12C204.85 714.096 205.01 713.208 205.33 712.456C205.65 711.704 206.082 711.088 206.626 710.608C207.186 710.128 207.81 709.768 208.498 709.528C209.202 709.288 209.93 709.168 210.682 709.168C211.77 709.168 212.722 709.384 213.538 709.816C214.354 710.248 214.994 710.84 215.458 711.592C215.922 712.344 216.154 713.216 216.154 714.208C216.154 714.688 216.018 715.056 215.746 715.312C215.49 715.552 215.13 715.704 214.666 715.768L206.986 716.896ZM223.019 712.528L223.019 715.576L219.563 715.576L219.563 712.144C219.563 711.696 219.667 711.32 219.875 711.016C220.099 710.712 220.395 710.44 220.763 710.2C221.291 709.88 221.923 709.632 222.659 709.456C223.395 709.264 224.179 709.168 225.011 709.168C226.611 709.168 227.411 709.704 227.411 710.776C227.411 711.016 227.379 711.248 227.315 711.472C227.251 711.68 227.163 711.864 227.051 712.024C226.891 711.992 226.691 711.968 226.451 711.952C226.227 711.92 225.979 711.904 225.707 711.904C225.211 711.904 224.723 711.96 224.243 712.072C223.763 712.184 223.355 712.336 223.019 712.528ZM219.563 714.664L223.019 714.736L223.019 720.976C222.859 721.008 222.635 721.048 222.347 721.096C222.075 721.144 221.779 721.168 221.459 721.168C220.803 721.168 220.323 721.056 220.019 720.832C219.715 720.592 219.563 720.168 219.563 719.56L219.563 714.664ZM241.588 715.24C241.588 716.504 241.34 717.592 240.844 718.504C240.348 719.416 239.644 720.12 238.732 720.616C237.836 721.112 236.772 721.36 235.54 721.36C234.324 721.36 233.26 721.12 232.348 720.64C231.452 720.144 230.748 719.44 230.236 718.528C229.74 717.6 229.492 716.504 229.492 715.24C229.492 713.992 229.748 712.92 230.26 712.024C230.772 711.112 231.476 710.408 232.372 709.912C233.284 709.416 234.348 709.168 235.564 709.168C236.764 709.168 237.812 709.416 238.708 709.912C239.62 710.408 240.324 711.112 240.82 712.024C241.332 712.936 241.588 714.008 241.588 715.24ZM235.54 711.88C234.772 711.88 234.164 712.176 233.716 712.768C233.268 713.36 233.044 714.184 233.044 715.24C233.044 716.344 233.26 717.192 233.692 717.784C234.14 718.36 234.756 718.648 235.54 718.648C236.34 718.648 236.956 718.352 237.388 717.76C237.836 717.168 238.06 716.328 238.06 715.24C238.06 714.2 237.836 713.384 237.388 712.792C236.94 712.184 236.324 711.88 235.54 711.88ZM250.957 706.192C250.957 705.664 251.133 705.216 251.485 704.848C251.853 704.48 252.325 704.296 252.901 704.296C253.477 704.296 253.941 704.48 254.293 704.848C254.661 705.216 254.845 705.664 254.845 706.192C254.845 706.704 254.661 707.144 254.293 707.512C253.941 707.88 253.477 708.064 252.901 708.064C252.325 708.064 251.853 707.88 251.485 707.512C251.133 707.144 250.957 706.704 250.957 706.192ZM251.173 714.664L254.629 714.664L254.629 720.976C254.485 721.008 254.269 721.048 253.981 721.096C253.709 721.144 253.405 721.168 253.069 721.168C252.413 721.168 251.933 721.056 251.629 720.832C251.325 720.592 251.173 720.168 251.173 719.56L251.173 714.664ZM254.629 716.464L251.173 716.464L251.173 709.648C251.317 709.6 251.525 709.552 251.797 709.504C252.085 709.456 252.397 709.432 252.733 709.432C253.405 709.432 253.885 709.544 254.173 709.768C254.477 709.992 254.629 710.424 254.629 711.064L254.629 716.464ZM262.202 712.528L262.202 715.576L258.746 715.576L258.746 712.144C258.746 711.696 258.85 711.32 259.058 711.016C259.282 710.712 259.578 710.44 259.946 710.2C260.474 709.88 261.106 709.632 261.842 709.456C262.578 709.264 263.362 709.168 264.194 709.168C265.794 709.168 266.594 709.704 266.594 710.776C266.594 711.016 266.562 711.248 266.498 711.472C266.434 711.68 266.346 711.864 266.234 712.024C266.074 711.992 265.874 711.968 265.634 711.952C265.41 711.92 265.162 711.904 264.89 711.904C264.394 711.904 263.906 711.96 263.426 712.072C262.946 712.184 262.538 712.336 262.202 712.528ZM258.746 714.664L262.202 714.736L262.202 720.976C262.042 721.008 261.818 721.048 261.53 721.096C261.258 721.144 260.962 721.168 260.642 721.168C259.986 721.168 259.506 721.056 259.202 720.832C258.898 720.592 258.746 720.168 258.746 719.56L258.746 714.664ZM281.27 721.336C282.39 721.336 283.39 721.104 284.27 720.64C285.15 720.176 285.838 719.488 286.334 718.576C286.846 717.664 287.102 716.536 287.102 715.192C287.102 713.784 286.838 712.64 286.31 711.76C285.782 710.864 285.046 710.208 284.102 709.792C283.158 709.376 282.078 709.168 280.862 709.168C279.966 709.168 279.15 709.272 278.414 709.48C277.678 709.672 277.078 709.912 276.614 710.2C276.278 710.408 276.03 710.648 275.87 710.92C275.71 711.176 275.63 711.504 275.63 711.904L275.63 719.728L279.062 719.728L279.062 712.336C279.27 712.224 279.526 712.12 279.83 712.024C280.134 711.928 280.478 711.88 280.862 711.88C281.406 711.88 281.878 711.992 282.278 712.216C282.694 712.44 283.014 712.792 283.238 713.272C283.462 713.752 283.574 714.392 283.574 715.192C283.574 716.328 283.326 717.184 282.83 717.76C282.334 718.32 281.638 718.6 280.742 718.6C280.23 718.6 279.774 718.504 279.374 718.312C278.99 718.12 278.654 717.904 278.366 717.664L278.366 720.616C278.718 720.808 279.134 720.976 279.614 721.12C280.11 721.264 280.662 721.336 281.27 721.336ZM279.086 718.84L275.63 718.84L275.63 723.856C275.63 724.48 275.782 724.904 276.086 725.128C276.39 725.368 276.87 725.488 277.526 725.488C277.846 725.488 278.142 725.464 278.414 725.416C278.702 725.368 278.926 725.328 279.086 725.296L279.086 718.84ZM294.067 712.528L294.067 715.576L290.611 715.576L290.611 712.144C290.611 711.696 290.715 711.32 290.923 711.016C291.147 710.712 291.443 710.44 291.811 710.2C292.339 709.88 292.971 709.632 293.707 709.456C294.443 709.264 295.227 709.168 296.059 709.168C297.659 709.168 298.459 709.704 298.459 710.776C298.459 711.016 298.427 711.248 298.363 711.472C298.299 711.68 298.211 711.864 298.099 712.024C297.939 711.992 297.739 711.968 297.499 711.952C297.275 711.92 297.027 711.904 296.755 711.904C296.259 711.904 295.771 711.96 295.291 712.072C294.811 712.184 294.403 712.336 294.067 712.528ZM290.611 714.664L294.067 714.736L294.067 720.976C293.907 721.008 293.683 721.048 293.395 721.096C293.123 721.144 292.827 721.168 292.507 721.168C291.851 721.168 291.371 721.056 291.067 720.832C290.763 720.592 290.611 720.168 290.611 719.56L290.611 714.664ZM305.89 718.792C306.274 718.792 306.65 718.752 307.018 718.672C307.386 718.592 307.65 718.504 307.81 718.408L307.81 716.032L305.722 716.224C305.162 716.272 304.722 716.4 304.402 716.608C304.082 716.8 303.922 717.088 303.922 717.472C303.922 717.872 304.074 718.192 304.378 718.432C304.698 718.672 305.202 718.792 305.89 718.792ZM305.746 709.168C307.394 709.168 308.706 709.512 309.682 710.2C310.658 710.872 311.146 711.936 311.146 713.392L311.146 718.864C311.146 719.264 311.042 719.584 310.834 719.824C310.642 720.064 310.394 720.28 310.09 720.472C309.61 720.744 309.018 720.96 308.314 721.12C307.61 721.28 306.802 721.36 305.89 721.36C304.258 721.36 302.962 721.048 302.002 720.424C301.042 719.784 300.562 718.84 300.562 717.592C300.562 716.504 300.898 715.672 301.57 715.096C302.258 714.52 303.258 714.16 304.57 714.016L307.786 713.68L307.786 713.368C307.786 712.808 307.57 712.408 307.138 712.168C306.722 711.912 306.122 711.784 305.338 711.784C304.73 711.784 304.13 711.856 303.538 712C302.946 712.144 302.418 712.32 301.954 712.528C301.778 712.4 301.618 712.208 301.474 711.952C301.346 711.696 301.282 711.432 301.282 711.16C301.282 710.488 301.642 710.008 302.362 709.72C302.81 709.528 303.338 709.392 303.946 709.312C304.57 709.216 305.17 709.168 305.746 709.168ZM321.308 714.664L324.74 714.736L324.74 720.976C324.596 721.008 324.38 721.048 324.092 721.096C323.82 721.144 323.524 721.168 323.204 721.168C322.548 721.168 322.068 721.056 321.764 720.832C321.46 720.592 321.308 720.168 321.308 719.56L321.308 714.664ZM324.74 716.536L321.308 716.464L321.308 705.376C321.452 705.328 321.66 705.288 321.932 705.256C322.22 705.208 322.524 705.184 322.844 705.184C323.516 705.184 323.996 705.296 324.284 705.52C324.588 705.744 324.74 706.168 324.74 706.792L324.74 716.536ZM328.927 716.536L328.927 714.784L332.383 714.784L332.383 716.512C332.383 717.264 332.575 717.808 332.959 718.144C333.343 718.48 333.887 718.648 334.591 718.648C335.039 718.648 335.415 718.608 335.719 718.528C336.023 718.432 336.247 718.336 336.391 718.24L336.391 714.784L339.847 714.784L339.847 718.648C339.847 719.032 339.775 719.36 339.631 719.632C339.487 719.904 339.247 720.136 338.911 720.328C338.415 720.648 337.791 720.896 337.039 721.072C336.303 721.264 335.479 721.36 334.567 721.36C333.447 721.36 332.455 721.192 331.591 720.856C330.743 720.52 330.087 720 329.623 719.296C329.159 718.576 328.927 717.656 328.927 716.536ZM339.847 715.864L336.391 715.864L336.391 709.552C336.535 709.504 336.751 709.464 337.039 709.432C337.327 709.384 337.631 709.36 337.951 709.36C338.623 709.36 339.103 709.472 339.391 709.696C339.695 709.92 339.847 710.344 339.847 710.968L339.847 715.864ZM332.383 715.864L328.927 715.864L328.927 709.552C329.071 709.504 329.279 709.464 329.551 709.432C329.839 709.384 330.151 709.36 330.487 709.36C331.143 709.36 331.623 709.472 331.927 709.696C332.231 709.92 332.383 710.344 332.383 710.968L332.383 715.864ZM348.565 718.792C348.949 718.792 349.325 718.752 349.693 718.672C350.061 718.592 350.325 718.504 350.485 718.408L350.485 716.032L348.397 716.224C347.837 716.272 347.397 716.4 347.077 716.608C346.757 716.8 346.597 717.088 346.597 717.472C346.597 717.872 346.749 718.192 347.053 718.432C347.373 718.672 347.877 718.792 348.565 718.792ZM348.421 709.168C350.069 709.168 351.381 709.512 352.357 710.2C353.333 710.872 353.821 711.936 353.821 713.392L353.821 718.864C353.821 719.264 353.717 719.584 353.509 719.824C353.317 720.064 353.069 720.28 352.765 720.472C352.285 720.744 351.693 720.96 350.989 721.12C350.285 721.28 349.477 721.36 348.565 721.36C346.933 721.36 345.637 721.048 344.677 720.424C343.717 719.784 343.237 718.84 343.237 717.592C343.237 716.504 343.573 715.672 344.245 715.096C344.933 714.52 345.933 714.16 347.245 714.016L350.461 713.68L350.461 713.368C350.461 712.808 350.245 712.408 349.813 712.168C349.397 711.912 348.797 711.784 348.013 711.784C347.405 711.784 346.805 711.856 346.213 712C345.621 712.144 345.093 712.32 344.629 712.528C344.453 712.4 344.293 712.208 344.149 711.952C344.021 711.696 343.957 711.432 343.957 711.16C343.957 710.488 344.317 710.008 345.037 709.72C345.485 709.528 346.013 709.392 346.621 709.312C347.245 709.216 347.845 709.168 348.421 709.168ZM361.579 706.264C361.579 706.616 361.571 707.088 361.555 707.68C361.539 708.272 361.515 708.928 361.483 709.648C361.451 710.352 361.411 711.08 361.363 711.832C361.331 712.568 361.291 713.28 361.243 713.968C361.195 714.64 361.147 715.24 361.099 715.768C360.971 715.864 360.771 715.944 360.499 716.008C360.227 716.072 359.995 716.104 359.803 716.104C359.419 716.104 359.091 716.04 358.819 715.912C358.547 715.768 358.379 715.52 358.315 715.168C358.267 714.816 358.219 714.32 358.171 713.68C358.139 713.04 358.107 712.328 358.075 711.544C358.043 710.744 358.011 709.944 357.979 709.144C357.963 708.328 357.947 707.568 357.931 706.864C357.915 706.16 357.907 705.568 357.907 705.088C358.499 704.768 359.147 704.608 359.851 704.608C361.003 704.608 361.579 705.16 361.579 706.264ZM357.787 719.392C357.787 718.816 357.963 718.344 358.315 717.976C358.683 717.608 359.179 717.424 359.803 717.424C360.427 717.424 360.915 717.608 361.267 717.976C361.635 718.344 361.819 718.816 361.819 719.392C361.819 719.968 361.635 720.448 361.267 720.832C360.915 721.2 360.427 721.384 359.803 721.384C359.179 721.384 358.683 721.2 358.315 720.832C357.963 720.448 357.787 719.968 357.787 719.392Z" fill="#E9E1FD"/>
</svg>
